<svg xmlns="http://www.w3.org/2000/svg" width="512" height="512" viewBox="0 0 512 512" version="1.1"><path d="M 41.500 135.417 C 35.969 137.886, 29.989 146.367, 30.006 151.718 C 30.030 159.549, 27.451 156.785, 138.329 267.853 C 211.589 341.239, 245.740 374.787, 248.500 376.081 C 250.700 377.112, 254.075 377.956, 256 377.956 C 257.925 377.956, 261.300 377.112, 263.500 376.081 C 266.261 374.787, 300.378 341.263, 373.643 267.853 C 486.655 154.617, 483.006 158.588, 481.664 150.316 C 479.705 138.246, 467.320 130.831, 456.718 135.381 C 454.834 136.189, 412.526 177.510, 354.672 235.046 L 255.844 333.330 157.672 235.203 C 88.467 166.030, 58.403 136.622, 55.782 135.538 C 51.259 133.667, 45.531 133.618, 41.500 135.417" stroke="none" fill="#000000" fill-rule="evenodd"/></svg>