<svg xmlns="http://www.w3.org/2000/svg" width="837" height="838" viewBox="0 0 837 838" version="1.1"><path d="M 100 192.763 C 54.625 193.563, 17.340 194.366, 17.144 194.548 C 16.619 195.036, 258.201 672, 258.973 672 C 259.842 672, 346 498.816, 346 497.070 C 346 496.327, 311.278 427.157, 268.840 343.359 L 191.681 191 187.090 191.154 C 184.566 191.239, 145.375 191.963, 100 192.763 M 608.820 299.675 C 579.494 359.224, 555.275 407.948, 555 407.950 C 554.725 407.952, 535.200 370.614, 511.612 324.977 C 488.023 279.340, 468.422 242, 468.053 242 C 467.194 242, 393 397.152, 393 398.948 C 393 400.687, 558.099 726, 558.982 726 C 559.763 726, 822.402 193.054, 821.864 192.560 C 821.664 192.376, 785.644 192.041, 741.820 191.815 L 662.140 191.404 608.820 299.675" stroke="none" fill="#379a76" fill-rule="evenodd"/></svg>