<svg id="SvgjsSvg1001" width="288" height="288" xmlns="http://www.w3.org/2000/svg" version="1.1" xmlns:xlink="http://www.w3.org/1999/xlink" xmlns:svgjs="http://svgjs.com/svgjs"><defs id="SvgjsDefs1002"></defs><g id="SvgjsG1008"><svg xmlns="http://www.w3.org/2000/svg" viewBox="0 0 512 512" width="288" height="288"><path fill-rule="evenodd" d="M 248.500 135.919 C 245.739 137.213, 211.622 170.737, 138.357 244.147 C 25.345 357.383, 28.994 353.412, 30.336 361.684 C 32.295 373.754, 44.680 381.169, 55.282 376.619 C 57.166 375.811, 99.474 334.490, 157.328 276.954 L 256.156 178.670 354.328 276.797 C 423.533 345.970, 453.597 375.378, 456.218 376.462 C 465.809 380.430, 475.532 376.375, 480.104 366.500 C 482.256 361.852, 482.383 359.969, 480.915 354.500 C 479.985 351.036, 465.627 336.261, 373.671 244.147 C 300.411 170.761, 266.260 137.213, 263.500 135.919 C 261.300 134.888, 257.925 134.044, 256 134.044 C 254.075 134.044, 250.700 134.888, 248.500 135.919" fill="#ffffff" class="color000 svgShape"></path></svg></g></svg>