<?xml version="1.0" encoding="UTF-8"?>
<!DOCTYPE svg PUBLIC "-//W3C//DTD SVG 1.1//EN" "http://www.w3.org/Graphics/SVG/1.1/DTD/svg11.dtd">
<svg xmlns="http://www.w3.org/2000/svg" version="1.1" width="512px" height="512px" style="shape-rendering:geometricPrecision; text-rendering:geometricPrecision; image-rendering:optimizeQuality; fill-rule:evenodd; clip-rule:evenodd" xmlns:xlink="http://www.w3.org/1999/xlink">
<g><path style="opacity:0.987" fill="#f44235" d="M 248.5,-0.5 C 253.167,-0.5 257.833,-0.5 262.5,-0.5C 267.709,1.86958 271.876,5.53625 275,10.5C 286.247,30.6632 297.747,50.6632 309.5,70.5C 358.855,71.0381 408.188,71.8714 457.5,73C 479.42,78.9209 492.254,93.0876 496,115.5C 496.667,209.5 496.667,303.5 496,397.5C 491.281,420.553 477.447,434.719 454.5,440C 321.833,440.667 189.167,440.667 56.5,440C 33.5526,434.719 19.7193,420.553 15,397.5C 14.3333,303.5 14.3333,209.5 15,115.5C 18.7371,93.0961 31.5704,78.9295 53.5,73C 102.812,71.8714 152.145,71.0381 201.5,70.5C 213.667,49.5 225.833,28.5 238,7.5C 240.94,3.96319 244.44,1.29652 248.5,-0.5 Z M 254.5,109.5 C 267.119,110.952 274.285,117.952 276,130.5C 276.667,152.833 276.667,175.167 276,197.5C 272.36,215.736 261.86,221.569 244.5,215C 241.628,212.463 239.128,209.63 237,206.5C 235.859,192.399 235.359,178.232 235.5,164C 235.359,149.768 235.859,135.601 237,121.5C 241.168,114.85 247.002,110.85 254.5,109.5 Z M 63.5,114.5 C 100.839,114.167 138.173,114.5 175.5,115.5C 141.866,174.296 108.033,232.962 74,291.5C 69.4478,307.235 74.9478,317.401 90.5,322C 200.5,322.667 310.5,322.667 420.5,322C 436.052,317.401 441.552,307.235 437,291.5C 402.967,232.962 369.134,174.296 335.5,115.5C 372.829,114.333 410.162,114.167 447.5,115C 449.939,115.774 451.773,117.274 453,119.5C 453.995,211.248 453.661,302.914 452,394.5C 451.167,395.333 450.333,396.167 449.5,397C 320.167,397.667 190.833,397.667 61.5,397C 59.9512,395.786 58.7845,394.286 58,392.5C 57.3333,301.5 57.3333,210.5 58,119.5C 59.4055,117.256 61.2389,115.59 63.5,114.5 Z M 253.5,226.5 C 271.636,228.799 278.469,238.799 274,256.5C 265.084,269.643 254.084,271.643 241,262.5C 230.579,245.258 234.746,233.258 253.5,226.5 Z"/></g>
<g><path style="opacity:0.994" fill="#f44335" d="M 304.5,511.5 C 271.833,511.5 239.167,511.5 206.5,511.5C 191.906,503.61 188.406,492.277 196,477.5C 198.708,473.896 202.208,471.396 206.5,470C 239.167,469.333 271.833,469.333 304.5,470C 319.142,477.695 322.642,488.862 315,503.5C 312.06,507.037 308.56,509.703 304.5,511.5 Z"/></g>
</svg>
