<svg xmlns="http://www.w3.org/2000/svg" width="901" height="901" viewBox="0 0 901 901" version="1.1"><path d="M 407.885 1.579 C 326.418 9.658, 250.271 38.450, 185 85.854 C 151.887 109.903, 116.854 144.243, 91.131 177.867 C 47.275 235.193, 16.039 308.724, 5.033 380.546 C -1.801 425.143, -1.801 475.857, 5.033 520.454 C 15.632 589.622, 44.108 658.519, 85.854 716 C 109.903 749.113, 144.243 784.146, 177.867 809.869 C 235.193 853.725, 308.724 884.961, 380.546 895.967 C 425.143 902.801, 475.857 902.801, 520.454 895.967 C 572.461 887.998, 626.482 869.142, 673.500 842.549 C 742.800 803.351, 802.969 743.174, 842.523 673.500 C 874.059 617.950, 895.542 548.879, 899.598 489.994 C 899.978 484.464, 900.675 479.701, 901.145 479.410 C 901.615 479.120, 902 465.607, 902 449.382 C 902 433.157, 901.613 420.121, 901.141 420.413 C 900.669 420.705, 899.972 416.445, 899.594 410.947 C 896.989 373.131, 885.604 324.733, 870.013 285.198 C 846.356 225.210, 812.727 174.518, 766.343 128.929 C 691.381 55.251, 597.362 11.654, 491.589 1.524 C 471.928 -0.359, 427.130 -0.330, 407.885 1.579 M 130.500 272.567 C 92.550 273.284, 58.532 274.013, 54.905 274.186 L 48.310 274.500 169.405 513.735 C 236.007 645.314, 290.727 752.977, 291.005 752.985 C 291.282 752.993, 311.169 713.376, 335.198 664.946 L 378.887 576.893 301.516 424.196 L 224.146 271.500 211.823 271.382 C 205.045 271.316, 168.450 271.850, 130.500 272.567 M 673.512 312.669 C 662.174 335.676, 638.211 384.313, 620.260 420.750 C 602.309 457.187, 587.347 487, 587.011 487 C 586.675 487, 567.072 449.656, 543.450 404.014 C 519.827 358.371, 500.275 321.028, 500 321.029 C 499.725 321.030, 482.530 356.579, 461.789 400.026 L 424.078 479.022 507.289 642.996 C 553.055 733.181, 590.725 806.971, 591 806.972 C 591.440 806.974, 854.902 272.687, 854.613 272.379 C 854.551 272.313, 818.416 271.939, 774.313 271.548 L 694.126 270.838 673.512 312.669 M 0.443 450.500 C 0.443 467, 0.580 473.890, 0.748 465.812 C 0.915 457.733, 0.916 444.233, 0.748 435.812 C 0.581 427.390, 0.444 434, 0.443 450.500" stroke="none" fill="#000000" fill-rule="evenodd"/><path d="M 130.500 272.567 C 92.550 273.284, 58.532 274.013, 54.905 274.186 L 48.310 274.500 169.405 513.735 C 236.007 645.314, 290.727 752.977, 291.005 752.985 C 291.282 752.993, 311.169 713.376, 335.198 664.946 L 378.887 576.893 301.516 424.196 L 224.146 271.500 211.823 271.382 C 205.045 271.316, 168.450 271.850, 130.500 272.567 M 673.512 312.669 C 662.174 335.676, 638.211 384.313, 620.260 420.750 C 602.309 457.187, 587.347 487, 587.011 487 C 586.675 487, 567.072 449.656, 543.450 404.014 C 519.827 358.371, 500.275 321.028, 500 321.029 C 499.725 321.030, 482.530 356.579, 461.789 400.026 L 424.078 479.022 507.289 642.996 C 553.055 733.181, 590.725 806.971, 591 806.972 C 591.440 806.974, 854.902 272.687, 854.613 272.379 C 854.551 272.313, 818.416 271.939, 774.313 271.548 L 694.126 270.838 673.512 312.669" stroke="none" fill="#ffffff" fill-rule="evenodd"/></svg>